# xmcd
#
# Track frame offsets: 
#        183
#        13883
#        27998
#        47525
#        59778
#        73675
#        89180
#        105265
#        119605
#        131840
#        144488
#        159420
#        172260
#        185608
#        204730
#        225260
#
# Disc length: 3193 seconds
#
# Revision: 0
# Processed by: cddbd v1.5.2PL0 Copyright (c) Steve Scherf et al.
# Submitted via: ExactAudioCopyFreeDBPlugin 1.0
#
DISCID=ef0c7710
DTITLE=蔡琴，千百惠，蔡幸娟 - 老歌情懷，新經典第一輯
DYEAR=1992
DGENRE=Pop
TTITLE0=蔡琴 - 藍色的夢
TTITLE1=蔡幸娟 - 春風吻上我的臉
TTITLE2=蔡幸娟 - 秋的懷念
TTITLE3=蔡幸娟 - 南屏晚鐘
TTITLE4=蔡琴 - 明月千里寄相思
TTITLE5=千百惠 - 夜歸人
TTITLE6=蔡幸娟 - 藍與黑
TTITLE7=千百惠 - 憶良人
TTITLE8=蔡琴 - 今宵多珍重
TTITLE9=蔡幸娟 - 晚霞
TTITLE10=千百惠 - 黃昏的街頭
TTITLE11=蔡幸娟 - 重逢
TTITLE12=蔡琴 - 願嫁漢家郎
TTITLE13=千百惠 - 就這樣決定
TTITLE14=蔡幸娟 - 在水一方
TTITLE15=蔡幸娟 - 小城故事
EXTD=
EXTT0=
EXTT1=
EXTT2=
EXTT3=
EXTT4=
EXTT5=
EXTT6=
EXTT7=
EXTT8=
EXTT9=
EXTT10=
EXTT11=
EXTT12=
EXTT13=
EXTT14=
EXTT15=
PLAYORDER=
